<svg width="691" height="691" viewBox="0 0 691 691" fill="none" xmlns="http://www.w3.org/2000/svg">
<path d="M260.669 443.198C285.041 461.432 314.08 472.482 345.5 472.745C433.345 473.477 506.549 389.608 505.841 298.932C505.131 208.255 433.345 134.153 345.5 133.421C257.655 132.69 187.017 205.605 187.726 296.282C187.917 320.675 193.065 344.662 202.2 366.708" stroke="#FF0000" stroke-width="50" stroke-linecap="round"/>
<path d="M419.729 281.875C419.447 247.017 390.963 218.531 356.104 218.25" stroke="#FF0000" stroke-width="50" stroke-linecap="round"/>
<path d="M345.5 522.594C352.312 522.594 355.718 522.594 358.083 522.129C371.938 519.406 380.368 505.744 376.275 492.652C375.575 490.417 373.961 487.515 370.729 481.715M345.5 522.594C338.688 522.594 335.281 522.594 332.917 522.129C319.061 519.406 310.631 505.744 314.724 492.652C315.424 490.417 317.038 487.515 320.27 481.715M345.5 522.594V568.188" stroke="#FF0000" stroke-width="50" stroke-linecap="round"/>
</svg>
